<svg xmlns="http://www.w3.org/2000/svg" width="128" height="128" viewBox="0 0 128 128">
<defs><linearGradient id="g0" x1="0" y1="0" x2="0.3" y2="1"><stop offset="0" stop-color="#cf655b"></stop><stop offset="1" stop-color="#b14a41"></stop></linearGradient><clipPath id="clip0"><rect x="14" y="14" width="47" height="47" rx="6"></rect></clipPath><linearGradient id="g1" x1="0" y1="0" x2="0.3" y2="1"><stop offset="0" stop-color="#c1544a"></stop><stop offset="1" stop-color="#9d3a31"></stop></linearGradient><clipPath id="clip1"><rect x="67" y="14" width="47" height="47" rx="6"></rect></clipPath><linearGradient id="g2" x1="0" y1="0" x2="0.3" y2="1"><stop offset="0" stop-color="#3d6db4"></stop><stop offset="1" stop-color="#22508e"></stop></linearGradient><clipPath id="clip2"><rect x="14" y="67" width="47" height="47" rx="6"></rect></clipPath><linearGradient id="g3" x1="0" y1="0" x2="0.3" y2="1"><stop offset="0" stop-color="#315f9f"></stop><stop offset="1" stop-color="#1b447a"></stop></linearGradient><clipPath id="clip3"><rect x="67" y="67" width="47" height="47" rx="6"></rect></clipPath>
<filter id="ds" x="-20%" y="-20%" width="140%" height="140%"><feDropShadow dx="0" dy="2" stdDeviation="2.5" flood-color="#000" flood-opacity="0.28"></feDropShadow></filter>
</defs>
<g filter="url(#ds)"><g clip-path="url(#clip0)">
    <rect x="14" y="14" width="47" height="47" rx="6" fill="url(#g0)"></rect>
    <rect x="15.5" y="15.5" width="44" height="3" rx="1.5" fill="rgba(255,255,255,0.3)"></rect>
    <rect x="15.5" y="56.5" width="44" height="3" rx="1.5" fill="rgba(0,0,0,0.2)"></rect>
    <line x1="18" y1="21" x2="57" y2="21" stroke="rgba(0,0,0,0.07)" stroke-width="1"></line><line x1="18" y1="28" x2="57" y2="28" stroke="rgba(0,0,0,0.07)" stroke-width="1"></line><line x1="18" y1="35" x2="57" y2="35" stroke="rgba(0,0,0,0.07)" stroke-width="1"></line><line x1="18" y1="42" x2="57" y2="42" stroke="rgba(0,0,0,0.07)" stroke-width="1"></line><line x1="18" y1="49" x2="57" y2="49" stroke="rgba(0,0,0,0.07)" stroke-width="1"></line>
    <line x1="37.5" y1="17.76" x2="37.5" y2="57.24" stroke="rgba(0,0,0,0.26)" stroke-width="2"></line>
    <rect x="25.19" y="17.76" width="3" height="39.480000000000004" rx="1.5" fill="rgba(255,255,255,0.82)"></rect>
    <rect x="46.81" y="17.76" width="3" height="39.480000000000004" rx="1.5" fill="rgba(255,255,255,0.82)"></rect>
    <rect x="24.19" y="33.5" width="5" height="8" rx="2" fill="rgba(255,255,255,0.9)"></rect>
    <rect x="45.81" y="33.5" width="5" height="8" rx="2" fill="rgba(255,255,255,0.9)"></rect>
    <rect x="15" y="15" width="45" height="45" rx="5" fill="none" stroke="rgba(0,0,0,0.24)" stroke-width="2"></rect>
  </g><g clip-path="url(#clip1)">
    <rect x="67" y="14" width="47" height="47" rx="6" fill="url(#g1)"></rect>
    <rect x="68.5" y="15.5" width="44" height="3" rx="1.5" fill="rgba(255,255,255,0.3)"></rect>
    <rect x="68.5" y="56.5" width="44" height="3" rx="1.5" fill="rgba(0,0,0,0.2)"></rect>
    <line x1="71" y1="21" x2="110" y2="21" stroke="rgba(0,0,0,0.07)" stroke-width="1"></line><line x1="71" y1="28" x2="110" y2="28" stroke="rgba(0,0,0,0.07)" stroke-width="1"></line><line x1="71" y1="35" x2="110" y2="35" stroke="rgba(0,0,0,0.07)" stroke-width="1"></line><line x1="71" y1="42" x2="110" y2="42" stroke="rgba(0,0,0,0.07)" stroke-width="1"></line><line x1="71" y1="49" x2="110" y2="49" stroke="rgba(0,0,0,0.07)" stroke-width="1"></line>
    <line x1="90.5" y1="17.76" x2="90.5" y2="57.24" stroke="rgba(0,0,0,0.26)" stroke-width="2"></line>
    <rect x="78.19" y="17.76" width="3" height="39.480000000000004" rx="1.5" fill="rgba(255,255,255,0.82)"></rect>
    <rect x="99.81" y="17.76" width="3" height="39.480000000000004" rx="1.5" fill="rgba(255,255,255,0.82)"></rect>
    <rect x="77.19" y="33.5" width="5" height="8" rx="2" fill="rgba(255,255,255,0.9)"></rect>
    <rect x="98.81" y="33.5" width="5" height="8" rx="2" fill="rgba(255,255,255,0.9)"></rect>
    <rect x="68" y="15" width="45" height="45" rx="5" fill="none" stroke="rgba(0,0,0,0.24)" stroke-width="2"></rect>
  </g><g clip-path="url(#clip2)">
    <rect x="14" y="67" width="47" height="47" rx="6" fill="url(#g2)"></rect>
    <rect x="15.5" y="68.5" width="44" height="3" rx="1.5" fill="rgba(255,255,255,0.3)"></rect>
    <rect x="15.5" y="109.5" width="44" height="3" rx="1.5" fill="rgba(0,0,0,0.2)"></rect>
    <line x1="18" y1="74" x2="57" y2="74" stroke="rgba(0,0,0,0.07)" stroke-width="1"></line><line x1="18" y1="81" x2="57" y2="81" stroke="rgba(0,0,0,0.07)" stroke-width="1"></line><line x1="18" y1="88" x2="57" y2="88" stroke="rgba(0,0,0,0.07)" stroke-width="1"></line><line x1="18" y1="95" x2="57" y2="95" stroke="rgba(0,0,0,0.07)" stroke-width="1"></line><line x1="18" y1="102" x2="57" y2="102" stroke="rgba(0,0,0,0.07)" stroke-width="1"></line>
    <line x1="37.5" y1="70.76" x2="37.5" y2="110.24000000000001" stroke="rgba(0,0,0,0.26)" stroke-width="2"></line>
    <rect x="25.19" y="70.76" width="3" height="39.480000000000004" rx="1.5" fill="rgba(255,255,255,0.82)"></rect>
    <rect x="46.81" y="70.76" width="3" height="39.480000000000004" rx="1.5" fill="rgba(255,255,255,0.82)"></rect>
    <rect x="24.19" y="86.5" width="5" height="8" rx="2" fill="rgba(255,255,255,0.9)"></rect>
    <rect x="45.81" y="86.5" width="5" height="8" rx="2" fill="rgba(255,255,255,0.9)"></rect>
    <rect x="15" y="68" width="45" height="45" rx="5" fill="none" stroke="rgba(0,0,0,0.24)" stroke-width="2"></rect>
  </g><g clip-path="url(#clip3)">
    <rect x="67" y="67" width="47" height="47" rx="6" fill="url(#g3)"></rect>
    <rect x="68.5" y="68.5" width="44" height="3" rx="1.5" fill="rgba(255,255,255,0.3)"></rect>
    <rect x="68.5" y="109.5" width="44" height="3" rx="1.5" fill="rgba(0,0,0,0.2)"></rect>
    <line x1="71" y1="74" x2="110" y2="74" stroke="rgba(0,0,0,0.07)" stroke-width="1"></line><line x1="71" y1="81" x2="110" y2="81" stroke="rgba(0,0,0,0.07)" stroke-width="1"></line><line x1="71" y1="88" x2="110" y2="88" stroke="rgba(0,0,0,0.07)" stroke-width="1"></line><line x1="71" y1="95" x2="110" y2="95" stroke="rgba(0,0,0,0.07)" stroke-width="1"></line><line x1="71" y1="102" x2="110" y2="102" stroke="rgba(0,0,0,0.07)" stroke-width="1"></line>
    <line x1="90.5" y1="70.76" x2="90.5" y2="110.24000000000001" stroke="rgba(0,0,0,0.26)" stroke-width="2"></line>
    <rect x="78.19" y="70.76" width="3" height="39.480000000000004" rx="1.5" fill="rgba(255,255,255,0.82)"></rect>
    <rect x="99.81" y="70.76" width="3" height="39.480000000000004" rx="1.5" fill="rgba(255,255,255,0.82)"></rect>
    <rect x="77.19" y="86.5" width="5" height="8" rx="2" fill="rgba(255,255,255,0.9)"></rect>
    <rect x="98.81" y="86.5" width="5" height="8" rx="2" fill="rgba(255,255,255,0.9)"></rect>
    <rect x="68" y="68" width="45" height="45" rx="5" fill="none" stroke="rgba(0,0,0,0.24)" stroke-width="2"></rect>
  </g></g>
</svg>